# 3ds Max Wavefront OBJ Exporter v0.97b - (c)2007 guruware
# File Created: 10.02.2019 13:30:47

mtllib soldado_base.mtl

#
# object GeoSphere001
#

v  0.0000 3.5403 -0.0000
v  1.7420 1.7218 -0.5829
v  -0.0160 1.7218 -1.8369
v  -1.7519 1.7218 -0.5524
v  -1.0667 1.7218 1.4955
v  1.0927 1.7218 1.4766
v  0.9365 -0.9185 0.2953
v  0.5702 -0.9185 -0.7994
v  -0.5841 -0.9185 -0.7893
v  -0.9312 -0.9185 0.3116
v  0.0086 -0.9185 0.9819
v  0.0000 -2.0538 -0.0000
# 12 vertices

vn -0.0000 1.0000 -0.0000
vn 0.9242 0.2242 -0.3092
vn -0.0085 0.2242 -0.9745
vn -0.9294 0.2242 -0.2930
vn -0.5659 0.2242 0.7934
vn 0.5797 0.2242 0.7834
vn 0.8280 -0.4962 0.2611
vn 0.5042 -0.4962 -0.7068
vn -0.5164 -0.4962 -0.6979
vn -0.8234 -0.4962 0.2755
vn 0.0076 -0.4962 0.8682
vn 0.0000 -1.0000 -0.0000
# 12 vertex normals

vt 0.8981 0.9684 0.0000
vt 0.8022 0.7598 0.0000
vt 0.9939 0.7598 0.0000
vt 0.1030 0.9669 0.0000
vt 0.0071 0.7584 0.0000
vt 0.1989 0.7584 0.0000
vt 0.2993 0.9669 0.0000
vt 0.2034 0.7584 0.0000
vt 0.3952 0.7584 0.0000
vt 0.4970 0.9669 0.0000
vt 0.4011 0.7584 0.0000
vt 0.5928 0.7584 0.0000
vt 0.6975 0.9684 0.0000
vt 0.6016 0.7598 0.0000
vt 0.7934 0.7598 0.0000
vt 0.8941 0.5111 0.0000
vt 0.8400 0.2452 0.0000
vt 0.9481 0.2452 0.0000
vt 0.1006 0.5125 0.0000
vt 0.0466 0.2466 0.0000
vt 0.1547 0.2466 0.0000
vt 0.2974 0.5116 0.0000
vt 0.2433 0.2457 0.0000
vt 0.3514 0.2457 0.0000
vt 0.4943 0.5119 0.0000
vt 0.4402 0.2460 0.0000
vt 0.5484 0.2460 0.0000
vt 0.6935 0.5105 0.0000
vt 0.6394 0.2446 0.0000
vt 0.7475 0.2446 0.0000
vt 0.8975 0.5273 0.0000
vt 0.9859 0.7473 0.0000
vt 0.8092 0.7473 0.0000
vt 0.1019 0.5281 0.0000
vt 0.1902 0.7480 0.0000
vt 0.0135 0.7480 0.0000
vt 0.2984 0.5278 0.0000
vt 0.3867 0.7478 0.0000
vt 0.2100 0.7478 0.0000
vt 0.4958 0.5272 0.0000
vt 0.5841 0.7472 0.0000
vt 0.4074 0.7472 0.0000
vt 0.6968 0.5267 0.0000
vt 0.7851 0.7467 0.0000
vt 0.6084 0.7467 0.0000
vt 0.1013 0.0221 0.0000
vt 0.1916 0.2391 0.0000
vt 0.0109 0.2391 0.0000
vt 0.2947 0.0219 0.0000
vt 0.3850 0.2389 0.0000
vt 0.2043 0.2389 0.0000
vt 0.4960 0.0215 0.0000
vt 0.5864 0.2385 0.0000
vt 0.4057 0.2385 0.0000
vt 0.6923 0.0209 0.0000
vt 0.7827 0.2379 0.0000
vt 0.6019 0.2379 0.0000
vt 0.8957 0.0207 0.0000
vt 0.9861 0.2377 0.0000
vt 0.8053 0.2377 0.0000
# 60 texture coords

o GeoSphere001
g GeoSphere001
usemtl 24___Default
s off
f 1/1/1 2/2/2 3/3/3 
f 1/4/1 3/5/3 4/6/4 
f 1/7/1 4/8/4 5/9/5 
f 1/10/1 5/11/5 6/12/6 
f 1/13/1 6/14/6 2/15/2 
f 2/16/2 7/17/7 8/18/8 
f 3/19/3 8/20/8 9/21/9 
f 4/22/4 9/23/9 10/24/10 
f 5/25/5 10/26/10 11/27/11 
f 6/28/6 11/29/11 7/30/7 
f 8/31/8 3/32/3 2/33/2 
f 9/34/9 4/35/4 3/36/3 
f 10/37/10 5/38/5 4/39/4 
f 11/40/11 6/41/6 5/42/5 
f 7/43/7 2/44/2 6/45/6 
f 12/46/12 9/47/9 8/48/8 
f 12/49/12 10/50/10 9/51/9 
f 12/52/12 11/53/11 10/54/10 
f 12/55/12 7/56/7 11/57/11 
f 12/58/12 8/59/8 7/60/7 
# 0 polygons - 20 triangles


